
<svg width="50px" height="50px" viewBox="0 0 50 50" version="1.1" xmlns="http://www.w3.org/2000/svg" xmlns:xlink="http://www.w3.org/1999/xlink">
    <!-- Generator: Sketch 43.2 (39069) - http://www.bohemiancoding.com/sketch -->
    <desc>Created with Sketch.</desc>
    <defs>
        <circle id="path-1" cx="23" cy="23" r="23"></circle>
        <polygon id="path-3" points="20.9771371 0.33995122 0.0291555529 0.33995122 0.0291555529 7.35614999 20.9771371 7.35614999 20.9771371 0.33995122"></polygon>
        <polygon id="path-5" points="6.51629268 3.42756098 6.51629268 0.533277678 0.441632593 0.533277678 0.441632593 3.42756098 6.51629268 3.42756098"></polygon>
        <polygon id="path-7" points="1.4675122 5.2762 1.4675122 0.0734534263 0.118409933 0.0734534263 0.118409933 5.2762 1.4675122 5.2762"></polygon>
    </defs>
    <g id="Page-1" stroke="none" stroke-width="1" fill="none" fill-rule="evenodd">
        <g id="Group-7" transform="translate(2.000000, 2.000000)">
            <g id="Page-1">
                <g id="Group-10">
                    <mask id="mask-2" fill="white">
                        <use xlink:href="#path-1"></use>
                    </mask>
                    <use id="Mask" stroke="#000000" stroke-width="2.11999989" fill="#FFFFFF" xlink:href="#path-1"></use>
                    <g id="Page-1" mask="url(#mask-2)">
                        <g transform="translate(5.609756, 6.731707)">
                            <path d="M13.463078,47.1514585 L13.4787854,47.1514585 C13.6605415,47.1424829 13.8007854,46.9887756 13.7918098,46.8081415 L13.051322,30.7260927 C13.0468341,30.6172634 12.9873707,30.5174098 12.8942488,30.4601902 L4.10263902,25.0871659 C3.9466878,24.9918 3.74473659,25.0422878 3.65049268,25.1971171 C3.55624878,25.3508244 3.60449268,25.5538976 3.7604439,25.6481415 L12.4028341,30.9302878 L13.1354683,46.8373122 C13.143322,47.0145805 13.2880537,47.1514585 13.463078,47.1514585" id="Fill-29" fill="#000000"></path>
                            <path d="M3.45415122,33.9876049 C3.74698049,33.9876049 3.99156585,33.7587268 4.00839512,33.4625317 L4.4504439,25.3766293 C4.46615122,25.0703366 4.23166341,24.808922 3.92649268,24.7920927 C3.6202,24.7685317 3.35766341,25.0097512 3.34083415,25.3160439 L2.89878537,33.4019463 C2.88307805,33.708239 3.11756585,33.9696537 3.42385854,33.9864829 C3.4339561,33.9876049 3.44405366,33.9876049 3.45415122,33.9876049" id="Fill-31" fill="#000000"></path>
                            <path d="M32.3295854,42.3203366 C32.3441707,42.3203366 32.3576341,42.3203366 32.3722195,42.3180927 C32.6785122,42.2956537 32.9073902,42.0286293 32.8838293,41.7223366 L32.6751463,38.9836537 C32.6515854,38.6784829 32.3901707,38.4417512 32.0782683,38.4731659 C31.7730976,38.4956049 31.5442195,38.7626293 31.5677805,39.068922 L31.7764634,41.8076049 C31.7977805,42.0981902 32.0423659,42.3203366 32.3295854,42.3203366" id="Fill-33" fill="#000000"></path>
                            <path d="M31.9254585,39.2450683 C31.9344341,39.2450683 31.9422878,39.2450683 31.9512634,39.2439463 C32.1318976,39.2304829 32.2676537,39.0722878 32.2541902,38.8916537 L31.7571659,32.3316049 C31.7425805,32.1509707 31.5810195,32.0185805 31.4037512,32.028678 C31.2231171,32.0421415 31.087361,32.2003366 31.1008244,32.3809707 L31.5978488,38.9410195 C31.6113122,39.1138 31.754922,39.2450683 31.9254585,39.2450683" id="Fill-35" fill="#000000"></path>
                            <path d="M31.6055902,32.8240293 C31.6201756,32.8240293 31.633639,32.8240293 31.6482244,32.8217854 C31.9545171,32.7993463 32.1833951,32.532322 32.1598341,32.2260293 L31.2566634,20.3815902 C31.244322,20.204322 31.1455902,20.0438829 30.9941268,19.950761 L28.0052488,18.1152488 C27.7438341,17.9559317 27.4005171,18.0367122 27.2412,18.2981268 C27.080761,18.5595415 27.1626634,18.9017366 27.424078,19.0621756 L30.1717366,20.7484683 L31.0524683,32.3112976 C31.0737854,32.6018829 31.3183707,32.8240293 31.6055902,32.8240293" id="Fill-37" fill="#000000"></path>
                            <path d="M30.3755951,43.4394829 C30.469839,43.4394829 30.5640829,43.415922 30.6504732,43.3665561 L32.6060341,42.2468488 C32.8719366,42.0942634 32.9650585,41.7554341 32.8124732,41.4895317 C32.6587659,41.2225073 32.3188146,41.1316293 32.0540341,41.2830927 L30.0995951,42.401678 C29.8336927,42.5542634 29.7405707,42.8942146 29.8931561,43.1601171 C29.9963756,43.3396293 30.1826195,43.4394829 30.3755951,43.4394829" id="Fill-39" fill="#000000"></path>
                            <path d="M15.6226098,49.8837463 C15.6787073,49.8837463 15.7359268,49.869161 15.7875366,49.8388683 L32.0928537,40.3595024 C32.2499268,40.2686244 32.3026585,40.0666732 32.2117805,39.9096 C32.1197805,39.7536488 31.9178293,39.6997951 31.761878,39.7906732 L15.456561,49.271161 C15.2994878,49.362039 15.2467561,49.5628683 15.3376341,49.7199415 C15.3993415,49.8254049 15.5092927,49.8837463 15.6226098,49.8837463" id="Fill-43" fill="#000000"></path>
                            <path d="M26.5133902,23.0206439 C26.5706098,23.0206439 26.6289512,23.0060585 26.6816829,22.9757659 L30.773439,20.6062049 C30.933878,20.5130829 30.9877317,20.3077659 30.8957317,20.1462049 C30.8026098,19.9857659 30.5972927,19.9319122 30.4357317,20.0239122 L26.3439756,22.3934732 C26.1835366,22.4865951 26.128561,22.6919122 26.2216829,22.8523512 C26.2845122,22.9600585 26.3978293,23.0206439 26.5133902,23.0206439" id="Fill-45" fill="#000000"></path>
                            <path d="M12.7386341,31.0613317 C12.7947317,31.0613317 12.8519512,31.0467463 12.9046829,31.0164537 L21.8309268,25.7993805 C21.988,25.7073805 22.0407317,25.5065512 21.9487317,25.349478 C21.8578537,25.1924049 21.6570244,25.1396732 21.4988293,25.2316732 L12.5725854,30.4487463 C12.4155122,30.5407463 12.3627805,30.7415756 12.4547805,30.8986488 C12.5153659,31.0029902 12.6253171,31.0613317 12.7386341,31.0613317" id="Fill-47" fill="#000000"></path>
                            <path d="M3.89597561,25.901478 C3.98797561,25.901478 4.07997561,25.879039 4.16636585,25.8307951 L9.06704878,23.0966 C9.33519512,22.9473805 9.43168293,22.6085512 9.28134146,22.3404049 C9.13212195,22.0722585 8.79329268,21.9780146 8.52626829,22.1261122 L3.62446341,24.8614293 C3.35743902,25.0106488 3.26095122,25.3483561 3.41017073,25.6165024 C3.51226829,25.7993805 3.7007561,25.901478 3.89597561,25.901478" id="Fill-49" fill="#000000"></path>
                            <path d="M17.7957171,13.3052195 C23.4256683,13.3052195 28.0234244,10.5081951 28.0436195,7.06941463 C28.0436195,6.88878049 27.8977659,6.74068293 27.7160098,6.73956098 L27.7148878,6.73956098 C27.5331317,6.73956098 27.387278,6.88541463 27.3850341,7.06604878 C27.3670829,10.143561 23.065522,12.6477561 17.7957171,12.6477561 C15.3330341,12.6477561 12.989278,12.098 11.1964,11.0983415 C10.3998146,10.6551707 9.74235122,10.1401951 9.24420488,9.56912195 C8.56318049,8.78936585 8.21425366,7.95014634 8.2064,7.07614634 C8.2041561,6.89439024 8.06952195,6.7575122 7.87430244,6.75078049 C7.69254634,6.75190244 7.54669268,6.90112195 7.54781463,7.0817561 C7.5579122,8.10273171 7.97303415,9.1124878 8.74830244,10.0021951 C9.29693659,10.6304878 10.0127415,11.1925854 10.8766439,11.6739024 C12.7660098,12.7262927 15.2230829,13.3052195 17.7957171,13.3052195" id="Fill-51" fill="#000000"></path>
                            <g id="Group-55" stroke-width="1" fill="none" transform="translate(7.292683, 0.221137)">
                                <mask id="mask-4" fill="white">
                                    <use xlink:href="#path-3"></use>
                                </mask>
                                <g id="Clip-54"></g>
                                <path d="M0.584536585,7.35517561 C0.889707317,7.35517561 1.13765854,7.10946829 1.13990244,6.80317561 C1.16009756,3.8524439 5.36068293,1.45034634 10.5025854,1.45034634 C15.6456098,1.45034634 19.8461951,3.8524439 19.8663902,6.80317561 C19.8675122,7.11059024 20.1199512,7.37424878 20.425122,7.35517561 C20.7325366,7.35293171 20.9793659,7.10273659 20.977122,6.7964439 C20.9513171,3.17590732 16.3513171,0.339614634 10.5025854,0.339614634 C4.65497561,0.339614634 0.0549756098,3.17590732 0.0291707317,6.7964439 C0.0269268293,7.10273659 0.273756098,7.35293171 0.581170732,7.35517561 L0.584536585,7.35517561 Z" id="Fill-53" fill="#000000" mask="url(#mask-4)"></path>
                            </g>
                            <path d="M8.71767317,23.0647366 C8.8321122,23.0647366 8.94767317,23.0299561 9.04640488,22.9559073 C9.2943561,22.7741512 9.34596585,22.4263463 9.16420976,22.1795171 C8.67840488,21.5220537 8.43269756,20.8275659 8.43269756,20.1173707 C8.43269756,19.8099561 8.18362439,19.5620049 7.87733171,19.5620049 C7.57103902,19.5620049 7.32196585,19.8099561 7.32196585,20.1173707 C7.32196585,21.0710293 7.6406,21.9865415 8.27001463,22.8392244 C8.37996585,22.987322 8.54713659,23.0647366 8.71767317,23.0647366" id="Fill-56" fill="#000000"></path>
                            <path d="M17.7957171,26.375839 C23.1597659,26.375839 27.8663512,23.4509122 27.8663512,20.1164732 L27.8663512,18.3976439 C27.8663512,18.2170098 27.7182537,18.0689122 27.5364976,18.0689122 C27.3558634,18.0689122 27.2077659,18.2170098 27.2077659,18.3976439 L27.2077659,20.1164732 C27.2077659,23.1008634 22.8097171,25.7183756 17.7957171,25.7183756 C14.1684488,25.7183756 10.8912293,24.4236439 9.24083902,22.3390585 C9.1286439,22.1976927 8.92220488,22.1718878 8.77971707,22.2863268 C8.63722927,22.398522 8.61366829,22.604961 8.72586341,22.7474488 C10.4974244,24.9857415 13.9721073,26.375839 17.7957171,26.375839" id="Fill-58" fill="#000000"></path>
                            <path d="M27.7143268,19.1438537 C28.0206195,19.1438537 28.2696927,18.8947805 28.2696927,18.5884878 L28.2696927,7.04585366 C28.2696927,6.73956098 28.0206195,6.4904878 27.7143268,6.4904878 C27.4080341,6.4904878 27.158961,6.73956098 27.158961,7.04585366 L27.158961,18.5884878 C27.158961,18.8947805 27.4080341,19.1438537 27.7143268,19.1438537" id="Fill-60" fill="#000000"></path>
                            <path d="M7.87721951,20.7215415 C8.1835122,20.7215415 8.43258537,20.4724683 8.43258537,20.1661756 L8.43258537,7.04607805 C8.43258537,6.73978537 8.1835122,6.4907122 7.87721951,6.4907122 C7.57092683,6.4907122 7.32185366,6.73978537 7.32185366,7.04607805 L7.32185366,20.1661756 C7.32185366,20.4724683 7.57092683,20.7215415 7.87721951,20.7215415" id="Fill-62" fill="#000000"></path>
                            <path d="M20.6147317,18.0579171 C20.6147317,18.6682585 20.146878,19.164161 19.5701951,19.164161 C18.9935122,19.164161 18.5256585,18.6682585 18.5256585,18.0579171 C18.5256585,17.4475756 18.9935122,16.9516732 19.5701951,16.9516732 C20.146878,16.9516732 20.6147317,17.4475756 20.6147317,18.0579171" id="Fill-64" fill="#000000"></path>
                            <path d="M26.0642732,16.3000439 C26.0642732,16.9103854 25.5964195,17.4062878 25.0197366,17.4062878 C24.4430537,17.4062878 23.9752,16.9103854 23.9752,16.3000439 C23.9752,15.6897024 24.4430537,15.1938 25.0197366,15.1938 C25.5964195,15.1938 26.0642732,15.6897024 26.0642732,16.3000439" id="Fill-66" fill="#000000"></path>
                            <path d="M22.0509415,21.8414732 C22.9563561,21.8414732 23.7843561,21.4712293 24.523722,20.7363512 C24.6527463,20.6084488 24.6538683,20.3997659 24.5248439,20.2707415 C24.3969415,20.1417171 24.1893805,20.1417171 24.0603561,20.2707415 C23.2267463,21.0987415 22.3437707,21.3556683 21.2812829,21.0807902 C21.1051366,21.0325463 20.9267463,21.1402537 20.8807463,21.315278 C20.8347463,21.4914244 20.9402098,21.6709366 21.1163561,21.7169366 C21.4361122,21.799961 21.7480146,21.8414732 22.0509415,21.8414732" id="Fill-68" fill="#000000"></path>
                            <path d="M14.6827512,5.63993659 C14.6827512,6.58013171 16.1121171,7.37335122 17.8040195,7.37335122 C18.6241659,7.37335122 19.4028,7.19159512 19.9951902,6.86174146 C20.2509951,6.71925366 20.4608,6.55657073 20.6167512,6.37705854 C20.8220683,6.14257073 20.9252878,5.89461951 20.9252878,5.63993659 C20.9252878,4.69974146 19.495922,3.90652195 17.8040195,3.90652195 C16.1121171,3.90652195 14.6827512,4.69974146 14.6827512,5.63993659 M14.0252878,5.63993659 C14.0252878,4.29920488 15.6846537,3.24905854 17.8040195,3.24905854 C19.9233854,3.24905854 21.5827512,4.29920488 21.5827512,5.63993659 C21.5827512,6.05169268 21.4200683,6.45671707 21.1126537,6.80900976 C20.9062146,7.04574146 20.6380683,7.25666829 20.3149463,7.43730244 C19.6260683,7.8198878 18.7341171,8.03193659 17.8040195,8.03193659 C15.6846537,8.03193659 14.0252878,6.98066829 14.0252878,5.63993659" id="Fill-70" fill="#000000"></path>
                            <path d="M21.2542439,7.48049756 C21.436,7.48049756 21.5829756,7.33352195 21.5829756,7.15176585 L21.5829756,5.64049756 C21.5829756,5.45874146 21.436,5.3106439 21.2542439,5.3106439 C21.0724878,5.3106439 20.9255122,5.45874146 20.9255122,5.64049756 L20.9255122,7.15176585 C20.9255122,7.33352195 21.0724878,7.48049756 21.2542439,7.48049756" id="Fill-72" fill="#000000"></path>
                            <path d="M14.3458293,7.83211707 C14.5275854,7.83211707 14.674561,7.68514146 14.674561,7.50338537 L14.674561,5.63982439 C14.674561,5.45806829 14.5275854,5.31109268 14.3458293,5.31109268 C14.1640732,5.31109268 14.0170976,5.45806829 14.0170976,5.63982439 L14.0170976,7.50338537 C14.0170976,7.68514146 14.1640732,7.83211707 14.3458293,7.83211707" id="Fill-74" fill="#000000"></path>
                            <path d="M17.8039073,9.78936098 C18.7351268,9.78936098 19.6259561,9.57843415 20.3148341,9.19472683 C20.4741512,9.10609268 20.5302488,8.90638537 20.4427366,8.74706829 C20.3541024,8.58887317 20.1543951,8.53053171 19.995078,8.6202878 C19.4026878,8.95014146 18.6251756,9.13189756 17.8039073,9.13189756 C17.6221512,9.13189756 17.4751756,9.27887317 17.4751756,9.46062927 C17.4751756,9.64238537 17.6221512,9.78936098 17.8039073,9.78936098" id="Fill-76" fill="#000000"></path>
                            <path d="M17.8039073,9.78936098 C17.9856634,9.78936098 18.132639,9.64238537 18.132639,9.46062927 C18.132639,9.27887317 17.9856634,9.13189756 17.8039073,9.13189756 C16.1120049,9.13189756 14.682639,8.3375561 14.682639,7.39736098 C14.682639,7.21672683 14.5356634,7.06862927 14.3539073,7.06862927 C14.1721512,7.06862927 14.0251756,7.21672683 14.0251756,7.39736098 C14.0251756,8.73921463 15.6845415,9.78936098 17.8039073,9.78936098" id="Fill-78" fill="#000000"></path>
                            <path d="M2.96262439,44.1566341 C3.0636,44.1566341 3.16681951,44.1297073 3.25881951,44.0713659 C3.51799024,43.907561 3.59540488,43.5642439 3.4316,43.3050732 L1.18769756,39.7507317 L3.99594146,33.7752195 C4.1260878,33.4980976 4.00716098,33.167122 3.72891707,33.0369756 C3.45067317,32.9068293 3.12081951,33.0257561 2.99067317,33.302878 L0.0522829268,39.5532683 C-0.0273756098,39.7249268 -0.0150341463,39.9257561 0.0859414634,40.0873171 L2.49252683,43.8985854 C2.59799024,44.0646341 2.77862439,44.1566341 2.96262439,44.1566341" id="Fill-84" fill="#000000"></path>
                            <path d="M11.5651854,46.3546488 C11.6078195,46.3546488 11.6504537,46.3467951 11.6919659,46.3288439 C11.8591366,46.2592829 11.9387951,46.0674293 11.8692341,45.8991366 L8.86240488,38.6973317 C9.1586,38.1060634 10.3456244,35.7331366 10.7966488,34.7615268 C11.5449902,33.148161 11.251039,31.6223073 9.92040488,30.225478 C9.18216098,29.4502098 7.89528293,29.0115268 6.78679512,29.1629902 C5.87352683,29.2852829 5.16557561,29.7722098 4.7381122,30.5676732 L3.42767317,33.353478 C3.35138049,33.5184049 3.42094146,33.7147463 3.58586829,33.791039 C3.75191707,33.8695756 3.94601463,33.7977707 4.02342927,33.6339659 L5.32489268,30.8638683 C5.72542927,30.1177707 6.38962439,29.8799171 6.87542927,29.813722 C7.76962439,29.6947951 8.85230732,30.0571854 9.44469756,30.6787463 C10.585722,31.8769902 10.8325512,33.1223561 10.1997707,34.4844049 C9.68928293,35.5827951 8.22177073,38.507722 8.20718537,38.5368927 C8.16455122,38.622161 8.16118537,38.7231366 8.1970878,38.8117707 L11.2611366,46.1526976 C11.3138683,46.2783561 11.4372829,46.3546488 11.5651854,46.3546488" id="Fill-86" fill="#000000"></path>
                            <path d="M37.4208878,39.0083366 C37.7125951,39.0083366 37.9571805,38.7805805 37.9751317,38.4855073 C37.9930829,38.1792146 37.7597171,37.916678 37.4534244,37.8987268 C37.0921561,37.8774098 36.7443512,37.8157024 36.4178634,37.7158488 C36.1227902,37.6249707 35.8142537,37.7921415 35.7244976,38.0849707 C35.6347415,38.3778 35.7996683,38.6885805 36.0924976,38.7783366 C36.5031317,38.9039951 36.9384488,38.9814098 37.3883512,39.0072146 C37.3995707,39.0083366 37.4096683,39.0083366 37.4208878,39.0083366" id="Fill-100" fill="#000000"></path>
                            <path d="M36.2752634,38.7741854 C36.4132634,38.7741854 36.5411659,38.6877951 36.5871659,38.5497951 C36.6443854,38.3770146 36.5512634,38.1907707 36.3796049,38.1335512 C35.2621415,37.7610634 34.5721415,36.9768195 34.6215073,36.136478 C34.6495561,35.6495512 34.9547268,35.194039 35.480922,34.8518439 C35.6335073,34.7531122 35.6761415,34.5489171 35.5774098,34.3963317 C35.478678,34.2448683 35.2756049,34.2011122 35.1218976,34.2998439 C34.4161902,34.758722 34.0055561,35.3971122 33.9651659,36.0972098 C33.8978488,37.2438439 34.7639951,38.2872585 36.170922,38.7573561 C36.2057024,38.7685756 36.2404829,38.7741854 36.2752634,38.7741854" id="Fill-102" fill="#000000"></path>
                            <g id="Group-106" stroke-width="1" fill="none" transform="translate(34.219512, 32.757722)">
                                <mask id="mask-6" fill="white">
                                    <use xlink:href="#path-5"></use>
                                </mask>
                                <g id="Clip-105"></g>
                                <path d="M5.96070244,3.42756098 C6.0123122,3.42756098 6.06392195,3.42082927 6.11665366,3.40512195 C6.41060488,3.31985366 6.58001951,3.01131707 6.49475122,2.71736585 C6.08748293,1.31829268 4.6872878,0.609219512 3.55748293,0.54302439 C2.49948293,0.482439024 1.49084878,0.705707317 0.711092683,1.17356098 C0.448556098,1.3317561 0.363287805,1.67282927 0.520360976,1.93536585 C0.679678049,2.19902439 1.02187317,2.28317073 1.2832878,2.12609756 C1.86445854,1.77604878 2.66777561,1.60102439 3.49240976,1.65263415 C4.12070244,1.68853659 5.15401951,2.08570732 5.42777561,3.02702439 C5.49845854,3.26936585 5.72060488,3.42756098 5.96070244,3.42756098" id="Fill-104" fill="#FFFFFF" mask="url(#mask-6)"></path>
                            </g>
                            <path d="M39.9422488,40.2778244 C39.9781512,40.2778244 40.0140537,40.2744585 40.051078,40.2666049 C40.351761,40.2071415 40.5469805,39.9154341 40.4875171,39.6147512 C40.2462976,38.399678 39.1669805,37.6468488 37.5278098,37.550361 C36.9432732,37.5155805 36.2723463,37.6232878 36.0816146,37.6580683 C35.7798098,37.711922 35.5778585,38.0002634 35.6317122,38.3020683 C35.6866878,38.6038732 35.9750293,38.8047024 36.2757122,38.7519707 C36.5921024,38.6958732 37.0891268,38.6364098 37.4627366,38.6588488 C38.1056146,38.6969951 39.2129805,38.9000683 39.3981024,39.8312878 C39.4508341,40.0949463 39.6819561,40.2778244 39.9422488,40.2778244" id="Fill-107" fill="#000000"></path>
                            <path d="M37.2248829,43.2605317 C37.5165902,43.2605317 37.7611756,43.0327756 37.7791268,42.7377024 C37.797078,42.4314098 37.5625902,42.1688732 37.2574195,42.150922 C35.6788341,42.0578 34.3919561,41.1804341 34.4480537,40.2335073 C34.4660049,39.9272146 34.2315171,39.664678 33.9252244,39.6467268 C33.6032244,39.6366293 33.3563951,39.8632634 33.3384439,40.1684341 C33.245322,41.7694585 34.9372244,43.1270195 37.1923463,43.2594098 C37.2035659,43.2605317 37.2136634,43.2605317 37.2248829,43.2605317" id="Fill-109" fill="#000000"></path>
                            <path d="M34.0617659,40.3804829 C34.2345463,40.3804829 34.379278,40.2458488 34.3893756,40.0708244 L34.4241561,39.4784341 C34.4342537,39.2978 34.2962537,39.1418488 34.1156195,39.1317512 C33.9372293,39.1205317 33.7779122,39.2585317 33.7678146,39.4402878 L33.7330341,40.032678 C33.7229366,40.2144341 33.8609366,40.3692634 34.0415707,40.3804829 L34.0617659,40.3804829" id="Fill-111" fill="#000000"></path>
                            <path d="M34.1015951,39.7002439 C34.2743756,39.7002439 34.4191073,39.5656098 34.4292049,39.3905854 L34.6244244,36.0774634 C34.6356439,35.8968293 34.4976439,35.740878 34.3158878,35.7296585 C34.1397415,35.7150732 33.9781805,35.857561 33.9680829,36.0393171 L33.7728634,39.352439 C33.7616439,39.5330732 33.9007659,39.6890244 34.0814,39.7002439 L34.1015951,39.7002439" id="Fill-113" fill="#000000"></path>
                            <path d="M37.2445171,43.2708537 C37.5395902,43.2708537 37.7852976,43.0374878 37.798761,42.7401707 L37.981639,38.6024146 C37.9951024,38.296122 37.7572488,38.0369512 37.4509561,38.0234878 C37.1502732,38.0055366 36.8843707,38.247878 36.8720293,38.5541707 L36.6891512,42.6908049 C36.6756878,42.9982195 36.9135415,43.2562683 37.2198341,43.2708537 L37.2445171,43.2708537" id="Fill-115" fill="#000000"></path>
                            <g id="Group-119" stroke-width="1" fill="none" transform="translate(39.268293, 35.001624)">
                                <mask id="mask-8" fill="white">
                                    <use xlink:href="#path-7"></use>
                                </mask>
                                <g id="Clip-118"></g>
                                <path d="M0.674741463,5.2762 C0.96644878,5.2762 1.2121561,5.0484439 1.22898537,4.75337073 L1.46683902,0.660492683 C1.48479024,0.3542 1.25142439,0.0916634146 0.944009756,0.0737121951 C0.643326829,0.0647365854 0.376302439,0.29024878 0.35835122,0.595419512 L0.11937561,4.68829756 C0.10142439,4.99459024 0.335912195,5.25712683 0.642204878,5.27507805 C0.65342439,5.2762 0.663521951,5.2762 0.674741463,5.2762" id="Fill-117" fill="#FFFFFF" mask="url(#mask-8)"></path>
                            </g>
                            <path d="M35.1038341,34.9945561 C35.2070537,34.9945561 35.3102732,34.9665073 35.4022732,34.9070439 C35.6614439,34.7409951 35.7366146,34.397678 35.5705659,34.1396293 C35.338322,33.7761171 34.9041268,33.4518732 34.5765171,33.2903122 C34.301639,33.155678 33.9684195,33.2678732 33.8326634,33.5427512 C33.6980293,33.8187512 33.8113463,34.1508488 34.0862244,34.2866049 C34.2702244,34.3774829 34.5338829,34.5805561 34.6359805,34.7387512 C34.7414439,34.903678 34.9209561,34.9945561 35.1038341,34.9945561" id="Fill-120" fill="#000000"></path>
                            <path d="M31.6925415,35.8384878 C31.8215659,35.8384878 31.9438585,35.7621951 31.9965902,35.6342927 C32.4262976,34.5897561 33.3900537,33.970439 34.0228341,34.0512195 C34.2012244,34.0759024 34.3672732,33.946878 34.3897122,33.7662439 C34.4132732,33.5856098 34.2853707,33.4218049 34.1047366,33.3993659 C33.0916146,33.2725854 31.8989805,34.1443415 31.3884927,35.3852195 C31.3189317,35.5523902 31.3997122,35.7442439 31.5680049,35.8138049 C31.6083951,35.8306341 31.6510293,35.8384878 31.6925415,35.8384878" id="Fill-122" fill="#000000"></path>
                            <path d="M33.1759854,40.1873951 C33.5181805,40.1873951 33.8558878,40.1010049 34.1689122,39.9327122 C34.4381805,39.7879805 34.5391561,39.4513951 34.3944244,39.1810049 C34.2485707,38.9106146 33.9119854,38.809639 33.6415951,38.9554927 C33.4374,39.064322 33.2320829,39.1013463 33.0133024,39.062078 C32.9224244,39.0463707 32.7148634,38.8432976 32.6509122,38.3103707 C32.6138878,38.006322 32.3412537,37.7886634 32.0327171,37.8256878 C31.7286683,37.8627122 31.5110098,38.1387122 31.5480341,38.4438829 C31.6826683,39.5692 32.2963756,40.0662244 32.8259366,40.1571024 C32.9426195,40.1772976 33.0593024,40.1873951 33.1759854,40.1873951" id="Fill-124" fill="#000000"></path>
                            <path d="M34.468922,35.3486439 C34.5878488,35.3486439 34.7022878,35.2846927 34.7606293,35.1724976 C34.8447756,35.0120585 34.7830683,34.8134732 34.6215073,34.7282049 L32.9991659,33.8788878 C32.8376049,33.7936195 32.6390195,33.8564488 32.5548732,34.0168878 C32.4707268,34.1773268 32.5324341,34.3759122 32.6939951,34.4611805 L34.3174585,35.3104976 C34.3657024,35.3363024 34.4173122,35.3486439 34.468922,35.3486439" id="Fill-126" fill="#000000"></path>
                            <path d="M33.8558878,39.3654537 C33.9692049,39.3654537 34.0791561,39.3071122 34.1397415,39.2027707 C34.2317415,39.0456976 34.1790098,38.8448683 34.0219366,38.7528683 L32.0114,37.5793073 C31.8554488,37.4873073 31.6534976,37.540039 31.5626195,37.6971122 C31.4706195,37.8541854 31.5233512,38.0550146 31.6804244,38.1470146 L33.690961,39.3205756 C33.7425707,39.3508683 33.7997902,39.3654537 33.8558878,39.3654537" id="Fill-128" fill="#000000"></path>
                            <path d="M34.3311463,34.3438244 C34.5297317,34.3438244 34.7215854,34.237239 34.821439,34.0509951 C34.9661707,33.7794829 34.8640732,33.4428976 34.5936829,33.2992878 L31.9986098,31.9103122 C31.7282195,31.7655805 31.3916341,31.8665561 31.2469024,32.1380683 C31.1021707,32.4084585 31.2031463,32.7450439 31.4746585,32.8897756 L34.0697317,34.2787512 C34.1527561,34.3225073 34.2425122,34.3438244 34.3311463,34.3438244" id="Fill-130" fill="#000000"></path>
                        </g>
                    </g>
                </g>
            </g>
        </g>
    </g>
</svg>