<?xml version="1.0" encoding="UTF-8"?>
<svg width="128px" height="43px" viewBox="0 0 128 43" version="1.1" xmlns="http://www.w3.org/2000/svg" xmlns:xlink="http://www.w3.org/1999/xlink">
    <!-- Generator: Sketch 49.3 (51167) - http://www.bohemiancoding.com/sketch -->
    <title>logo-blue</title>
    <desc>Created with Sketch.</desc>
    <defs/>
    <g id="Page-1" stroke="none" stroke-width="1" fill="none" fill-rule="evenodd">
        <g id="logo-blue" transform="translate(0.000000, -1.000000)">
            <polygon id="Fill-6" fill="#3445DC" points="47.2657243 32.1142851 47.2657243 12.9844457 59.2596789 12.9844457 59.2596789 16.1253007 50.8928048 16.1253007 50.8928048 20.9661836 58.3274505 20.9661836 58.3274505 24.0815299 50.8928048 24.0815299 50.8928048 28.9215899 59.5188152 28.9215899 59.5188152 32.1142851"/>
            <polygon id="Fill-8" fill="#3445DC" points="65.1394239 25.0854186 61.2275419 18.0820608 65.1137587 18.0820608 67.4451576 22.6653886 67.6521355 23.2833561 67.8847786 22.6653886 69.9843623 18.0820608 73.6619454 18.0820608 69.7500633 25.05991 73.7919275 32.1142851 70.1913402 32.1142851 67.7042939 27.3770825 67.4451576 26.7072748 67.2373518 27.3770825 65.0102697 32.1142851 61.357524 32.1142851"/>
            <path d="M83.8935247,20.99161 L80.1886205,20.99161 L80.1886205,28.0204764 C80.1886205,29.1280454 80.6812279,29.616824 81.4586368,29.616824 C82.4686889,29.616824 83.712212,29.5649838 83.712212,29.5649838 L83.9448552,31.7537903 C83.9448552,31.7537903 82.0025747,32.3717578 79.6711758,32.3717578 C77.0549753,32.3717578 76.7701737,30.4668379 76.7701737,26.9392389 L76.7701737,20.99161 L74.904889,20.99161 L74.904889,18.5970886 L76.9506584,18.3395335 L77.132799,15.2760274 L80.1886205,15.1213298 L80.1886205,18.3658651 L83.8935247,18.3658651 L83.8935247,20.99161 Z" id="Fill-10" fill="#3445DC"/>
            <path d="M94.2812481,23.617684 C94.2812481,21.0947965 93.4525086,20.2966228 91.7163781,20.2966228 C89.9810755,20.2966228 89.0745124,21.0692879 89.0745124,23.617684 L94.2812481,23.617684 Z M85.5509208,25.2650489 C85.5509208,20.34764 87.701835,17.8247526 91.819867,17.8247526 C95.7317491,17.8247526 97.6748575,20.0653992 97.6748575,23.5921753 C97.6748575,24.7507616 97.5970338,26.0122053 97.5970338,26.0122053 L89.0488471,26.0122053 C89.0488471,28.2265205 89.592785,29.6426618 91.6393823,29.6426618 C93.5816628,29.6426618 96.7939596,29.2304091 96.7939596,29.2304091 L97.0787612,31.522073 C97.0787612,31.522073 93.8664644,32.372087 91.3015944,32.372087 C87.9344782,32.372087 85.5509208,30.4918529 85.5509208,25.2650489 L85.5509208,25.2650489 Z" id="Fill-12" fill="#3445DC"/>
            <path d="M103.657512,32.1142851 L100.238237,32.1142851 L100.238237,18.0820608 L103.139239,18.0820608 L103.502692,19.7820887 C105.651951,18.5198221 106.895474,17.8245057 108.916406,17.8245057 C112.334853,17.8245057 112.542659,19.7820887 112.542659,23.0776413 L112.542659,32.1142851 L109.124212,32.1142851 L109.124212,24.3901023 C109.124212,21.3776134 108.993402,20.8888348 107.776372,20.8888348 C106.455025,20.8888348 105.470638,21.4549622 103.657512,22.5625312 L103.657512,32.1142851 Z" id="Fill-14" fill="#3445DC"/>
            <path d="M124.173326,28.4322354 L124.173326,20.8890816 C124.173326,20.8890816 122.903309,20.476829 121.764103,20.476829 C119.873153,20.476829 118.551806,21.918479 118.551806,24.9564765 C118.551806,28.3812181 119.666175,29.6426618 121.427143,29.6426618 C122.851151,29.6426618 124.173326,28.4322354 124.173326,28.4322354 L124.173326,28.4322354 Z M124.898576,32.1145319 L124.458127,30.5181844 C124.017678,31.0843118 122.774155,32.372087 120.57191,32.372087 C118.007868,32.372087 115.028215,30.5692017 115.028215,25.5744441 C115.028215,19.9617189 118.033534,17.8247526 121.142342,17.8247526 C122.721997,17.8247526 123.8107,18.0304675 124.173326,18.1596564 L124.173326,12.7526462 L127.5926,12.7526462 L127.5926,32.1145319 L124.898576,32.1145319 Z" id="Fill-16" fill="#3445DC"/>
            <path d="M8.21703697,35.4599498 L8.21703697,35.4599498 L19.2555816,43.4309905 L30.2941263,35.4599498 L19.2555816,27.4889091 L8.21703697,35.4599498 Z M37.1161175,14.5922311 L37.1161175,14.5922311 L26.0775728,22.5632717 L30.2941263,35.4599498 C36.8760231,30.7071129 39.6296569,22.2826766 37.1161175,14.5922311 L37.1161175,14.5922311 Z M1.39587373,14.5922311 L1.39587373,14.5922311 C-1.11849364,22.2826766 1.63596808,30.7071129 8.21703697,35.4599498 L12.4335905,22.5632717 L1.39587373,14.5922311 Z M19.2555816,1.69473011 L5.61242724,1.69473011 L1.39587373,14.5922311 L15.0390281,14.5922311 L19.2555816,1.69473011 Z M37.1161175,14.5922311 L32.899564,1.69473011 L19.2555816,1.69473011 L23.4721352,14.5922311 L37.1161175,14.5922311 Z" id="Fill-3" fill="#3445DC"/>
            <g id="Page-1" transform="translate(0.474988, 0.871953)">
                <g id="Group-5" transform="translate(0.000000, 0.593035)"/>
            </g>
        </g>
    </g>
</svg>